<?xml version="1.0" encoding="UTF-8"?>
<!DOCTYPE svg PUBLIC "-//W3C//DTD SVG 1.1//EN" "http://www.w3.org/Graphics/SVG/1.1/DTD/svg11.dtd">
<svg xmlns="http://www.w3.org/2000/svg" version="1.1" width="1024px" height="1024px" style="shape-rendering:geometricPrecision; text-rendering:geometricPrecision; image-rendering:optimizeQuality; fill-rule:evenodd; clip-rule:evenodd" xmlns:xlink="http://www.w3.org/1999/xlink">
<g><path style="opacity:1" fill="#fefefe" d="M -0.5,-0.5 C 340.833,-0.5 682.167,-0.5 1023.5,-0.5C 1023.5,340.833 1023.5,682.167 1023.5,1023.5C 682.167,1023.5 340.833,1023.5 -0.5,1023.5C -0.5,682.167 -0.5,340.833 -0.5,-0.5 Z"/></g>
<g><path style="opacity:1" fill="#213d50" d="M 818.5,431.5 C 825.643,430.066 830.31,432.733 832.5,439.5C 831.116,446.858 826.782,449.692 819.5,448C 814.096,445.917 812.263,442.084 814,436.5C 815.025,434.313 816.525,432.646 818.5,431.5 Z"/></g>
<g><path style="opacity:1" fill="#213f54" d="M 455.5,434.5 C 460.563,434.268 465.896,434.601 471.5,435.5C 468.501,447.494 465.501,459.494 462.5,471.5C 462.543,472.416 462.876,473.083 463.5,473.5C 459.521,488.084 455.854,502.751 452.5,517.5C 446.167,517.5 439.833,517.5 433.5,517.5C 429.306,498.392 424.64,479.392 419.5,460.5C 414.356,479.075 409.523,497.741 405,516.5C 398.924,517.476 392.758,517.81 386.5,517.5C 379.344,489.209 372.344,460.875 365.5,432.5C 371.5,432.5 377.5,432.5 383.5,432.5C 387.362,452.281 391.696,471.948 396.5,491.5C 401.639,471.943 406.306,452.276 410.5,432.5C 416.5,432.5 422.5,432.5 428.5,432.5C 432.508,452.372 437.341,472.038 443,491.5C 447.254,472.386 451.42,453.386 455.5,434.5 Z"/></g>
<g><path style="opacity:1" fill="#224158" d="M 694.5,433.5 C 693.502,460.662 693.169,487.995 693.5,515.5C 688.5,515.5 683.5,515.5 678.5,515.5C 678.831,488.661 678.498,461.995 677.5,435.5C 677.5,434.5 677.5,433.5 677.5,432.5C 683.358,432.178 689.025,432.511 694.5,433.5 Z"/></g>
<g><path style="opacity:1" fill="#213f54" d="M 789.5,505.5 C 787.769,507.615 786.435,510.615 785.5,514.5C 779.393,515.643 773.727,515.643 768.5,514.5C 763.995,496.483 759.161,478.483 754,460.5C 751.964,468.324 749.798,475.99 747.5,483.5C 744.017,493.352 741.017,504.019 738.5,515.5C 732.833,515.5 727.167,515.5 721.5,515.5C 721.774,512.189 721.107,509.855 719.5,508.5C 712.252,483.506 705.918,458.173 700.5,432.5C 706.5,432.5 712.5,432.5 718.5,432.5C 721.961,452.637 726.128,472.637 731,492.5C 735.667,473.164 740.334,453.831 745,434.5C 747.724,433.224 750.724,432.558 754,432.5C 757.276,432.558 760.276,433.224 763,434.5C 767.688,453.586 772.521,472.586 777.5,491.5C 782.013,471.934 786.013,452.267 789.5,432.5C 795.868,432.17 802.202,432.504 808.5,433.5C 802.138,457.621 795.805,481.621 789.5,505.5 Z"/></g>
<g><path style="opacity:1" fill="#152734" d="M 463.5,473.5 C 462.876,473.083 462.543,472.416 462.5,471.5C 465.501,459.494 468.501,447.494 471.5,435.5C 465.896,434.601 460.563,434.268 455.5,434.5C 461.074,432.547 467.074,431.88 473.5,432.5C 470.323,446.206 466.99,459.873 463.5,473.5 Z"/></g>
<g><path style="opacity:1" fill="#224055" d="M 565.5,454.5 C 581.026,451.708 592.526,457.042 600,470.5C 602.463,477.281 603.63,484.281 603.5,491.5C 589.5,491.5 575.5,491.5 561.5,491.5C 563.411,504.45 570.411,508.617 582.5,504C 584.213,502.622 585.547,500.955 586.5,499C 591.489,498.501 596.489,498.334 601.5,498.5C 599.42,509.081 593.086,515.581 582.5,518C 554.419,519.915 541.919,506.748 545,478.5C 547.408,466.601 554.241,458.601 565.5,454.5 Z"/></g>
<g><path style="opacity:1" fill="#223f55" d="M 646.5,455.5 C 645.761,455.369 645.094,455.536 644.5,456C 661.64,461.016 668.973,472.516 666.5,490.5C 653.533,489.39 640.533,489.223 627.5,490C 626.262,490.69 626.262,491.19 627.5,491.5C 627.676,502.081 633.01,506.914 643.5,506C 647.671,505.161 650.671,502.828 652.5,499C 657.533,498.171 662.533,498.338 667.5,499.5C 661.01,515.754 649.01,521.92 631.5,518C 615.013,511.55 607.846,499.383 610,481.5C 613.783,460.865 625.95,452.198 646.5,455.5 Z"/></g>
<g><path style="opacity:1" fill="#214056" d="M 496.5,434.5 C 496.334,443.839 496.5,453.173 497,462.5C 503.185,454.998 511.019,452.498 520.5,455C 527.835,457.67 532.335,462.837 534,470.5C 534.826,473.793 535.326,477.126 535.5,480.5C 534.505,491.988 534.172,503.655 534.5,515.5C 529.5,515.5 524.5,515.5 519.5,515.5C 519.667,502.163 519.5,488.829 519,475.5C 518.667,474.833 518.333,474.167 518,473.5C 517.601,473.728 517.435,474.062 517.5,474.5C 513.562,468.494 508.229,466.994 501.5,470C 499.383,471.731 497.883,473.898 497,476.5C 496.5,490.163 496.333,503.829 496.5,517.5C 490.642,517.822 484.975,517.489 479.5,516.5C 484.844,516.666 490.177,516.499 495.5,516C 490.511,515.501 485.511,515.334 480.5,515.5C 480.5,488.5 480.5,461.5 480.5,434.5C 485.167,434.5 489.833,434.5 494.5,434.5C 494.334,443.173 494.5,451.84 495,460.5C 495.17,451.657 495.67,442.99 496.5,434.5 Z"/></g>
<g><path style="opacity:1" fill="#213e53" d="M 855.5,454.5 C 863.813,453.752 871.813,454.918 879.5,458C 885.506,461.847 888.839,467.347 889.5,474.5C 884.456,474.827 879.456,474.494 874.5,473.5C 871.123,466.899 865.789,464.732 858.5,467C 854.745,469.124 853.745,472.124 855.5,476C 863.228,479.214 871.228,481.547 879.5,483C 889.284,487.68 892.45,495.18 889,505.5C 883.385,515.225 874.885,519.559 863.5,518.5C 851.915,518.962 843.748,513.962 839,503.5C 838.506,501.866 838.34,500.199 838.5,498.5C 843.544,498.173 848.544,498.506 853.5,499.5C 857.779,506.47 863.779,508.303 871.5,505C 874.524,502.525 875.19,499.525 873.5,496C 865.242,493.184 856.908,490.517 848.5,488C 839.155,481.89 836.988,473.724 842,463.5C 845.826,459.348 850.326,456.348 855.5,454.5 Z"/></g>
<g><path style="opacity:1" fill="#224056" d="M 916.5,455.5 C 941.016,453.345 953.016,464.678 952.5,489.5C 939.117,489.185 925.784,489.518 912.5,490.5C 910.866,497.403 913.2,502.569 919.5,506C 920.749,506.74 921.749,506.573 922.5,505.5C 928.879,507.149 933.879,505.149 937.5,499.5C 942.695,499.179 947.695,499.513 952.5,500.5C 948.097,513.213 939.097,519.213 925.5,518.5C 922.645,518.497 919.978,518.164 917.5,517.5C 918.239,517.631 918.906,517.464 919.5,517C 909.497,514.33 902.664,508.163 899,498.5C 898.055,491.702 897.222,485.035 896.5,478.5C 898.888,467.112 905.555,459.445 916.5,455.5 Z"/></g>
<g><path style="opacity:1" fill="#13232f" d="M 496.5,434.5 C 495.67,442.99 495.17,451.657 495,460.5C 494.5,451.84 494.334,443.173 494.5,434.5C 489.833,434.5 485.167,434.5 480.5,434.5C 480.5,461.5 480.5,488.5 480.5,515.5C 485.511,515.334 490.511,515.501 495.5,516C 490.177,516.499 484.844,516.666 479.5,516.5C 479.5,488.5 479.5,460.5 479.5,432.5C 485.598,431.883 491.265,432.55 496.5,434.5 Z"/></g>
<g><path style="opacity:1" fill="#fbfcfc" d="M 577.5,466.5 C 583.176,468.863 586.176,473.196 586.5,479.5C 578.097,480.134 570.097,479.467 562.5,477.5C 563.99,469.24 568.99,465.573 577.5,466.5 Z"/></g>
<g><path style="opacity:1" fill="#fafbfb" d="M 937.5,478.5 C 929.5,479.833 921.5,479.833 913.5,478.5C 916.191,466.988 922.857,463.821 933.5,469C 936.076,471.651 937.409,474.818 937.5,478.5 Z"/></g>
<g><path style="opacity:1" fill="#f3f4f5" d="M 636.5,466.5 C 646.003,466.336 651.003,471.002 651.5,480.5C 643.5,480.5 635.5,480.5 627.5,480.5C 627.508,473.799 630.508,469.132 636.5,466.5 Z"/></g>
<g><path style="opacity:1" fill="#142633" d="M 577.5,466.5 C 568.99,465.573 563.99,469.24 562.5,477.5C 561.596,478.209 561.263,479.209 561.5,480.5C 569.833,480.5 578.167,480.5 586.5,480.5C 578.23,481.807 569.23,481.807 559.5,480.5C 561.35,468.708 567.35,464.042 577.5,466.5 Z"/></g>
<g><path style="opacity:1" fill="#96a2ab" d="M 562.5,477.5 C 570.097,479.467 578.097,480.134 586.5,479.5C 586.5,479.833 586.5,480.167 586.5,480.5C 578.167,480.5 569.833,480.5 561.5,480.5C 561.263,479.209 561.596,478.209 562.5,477.5 Z"/></g>
<g><path style="opacity:1" fill="#96a2aa" d="M 913.5,478.5 C 921.5,479.833 929.5,479.833 937.5,478.5C 938.043,478.56 938.376,478.893 938.5,479.5C 929.833,480.833 921.167,480.833 912.5,479.5C 912.624,478.893 912.957,478.56 913.5,478.5 Z"/></g>
<g><path style="opacity:1" fill="#4480a5" d="M 209.5,362.5 C 267.578,358.103 308.078,382.437 331,435.5C 341.211,466.252 339.044,496.086 324.5,525C 307.941,524.895 291.608,526.729 275.5,530.5C 274.833,530.167 274.167,529.833 273.5,529.5C 298.517,506.096 305.35,478.096 294,445.5C 277.543,412.346 250.709,397.513 213.5,401C 179.36,408.808 159.193,429.974 153,464.5C 151.731,511.906 174.564,539.406 221.5,547C 205.372,554.895 190.038,564.062 175.5,574.5C 121.641,541.429 103.475,494.429 121,433.5C 137.742,393.737 167.242,370.071 209.5,362.5 Z"/></g>
<g><path style="opacity:1" fill="#214056" d="M 216.5,409.5 C 248.491,407.03 271.658,420.03 286,448.5C 295.808,477.096 289.975,501.929 268.5,523C 246.904,538.844 223.571,541.844 198.5,532C 165.867,513.216 155.034,485.716 166,449.5C 175.732,426.908 192.566,413.575 216.5,409.5 Z"/></g>
<g><path style="opacity:1" fill="#fbfbfc" d="M 220.5,461.5 C 236.066,460.333 241.233,467 236,481.5C 228.727,488.441 221.727,488.108 215,480.5C 211.628,472.479 213.461,466.145 220.5,461.5 Z"/></g>
<g><path style="opacity:1" fill="#fafbfc" d="M 179.5,452.5 C 186.912,456.292 193.745,460.958 200,466.5C 200.667,470.833 200.667,475.167 200,479.5C 193.841,484.911 187.174,489.578 180,493.5C 178.523,492.556 177.523,491.223 177,489.5C 172.984,476.755 173.817,464.421 179.5,452.5 Z"/></g>
<g><path style="opacity:1" fill="#fbfcfc" d="M 269.5,452.5 C 270.822,452.33 271.989,452.663 273,453.5C 278.16,465.551 278.826,477.884 275,490.5C 274.632,491.91 273.799,492.91 272.5,493.5C 264.979,489.807 258.146,485.141 252,479.5C 251.333,474.833 251.333,470.167 252,465.5C 257.812,461.024 263.645,456.691 269.5,452.5 Z"/></g>
<g><path style="opacity:1" fill="#fcfcfc" d="M 233.5,423.5 C 245.379,423.884 255.212,428.551 263,437.5C 263.667,438.833 263.667,440.167 263,441.5C 256.828,446.586 250.162,450.92 243,454.5C 233.458,451.927 229.958,445.761 232.5,436C 232.53,431.752 232.864,427.586 233.5,423.5 Z"/></g>
<g><path style="opacity:1" fill="#f8f9fa" d="M 210.5,423.5 C 213.685,423.02 216.519,423.686 219,425.5C 219.667,432.833 219.667,440.167 219,447.5C 218.626,448.416 218.126,449.25 217.5,450C 214.6,451.742 211.6,453.242 208.5,454.5C 200.594,450.567 193.594,445.567 187.5,439.5C 189.612,435.553 192.612,432.387 196.5,430C 201.137,427.511 205.804,425.344 210.5,423.5 Z"/></g>
<g><path style="opacity:1" fill="#13232e" d="M 813.5,455.5 C 819.167,455.5 824.833,455.5 830.5,455.5C 830.5,476.167 830.5,496.833 830.5,517.5C 824.833,517.5 819.167,517.5 813.5,517.5C 813.5,496.833 813.5,476.167 813.5,455.5 Z"/></g>
<g><path style="opacity:1" fill="#224258" d="M 815.5,456.5 C 820.167,456.5 824.833,456.5 829.5,456.5C 829.5,476.167 829.5,495.833 829.5,515.5C 824.833,515.5 820.167,515.5 815.5,515.5C 815.5,495.833 815.5,476.167 815.5,456.5 Z"/></g>
<g><path style="opacity:1" fill="#1a2c39" d="M 646.5,455.5 C 658.597,458.433 665.763,466.1 668,478.5C 668.499,482.821 668.666,487.154 668.5,491.5C 654.833,491.5 641.167,491.5 627.5,491.5C 626.262,491.19 626.262,490.69 627.5,490C 640.533,489.223 653.533,489.39 666.5,490.5C 668.973,472.516 661.64,461.016 644.5,456C 645.094,455.536 645.761,455.369 646.5,455.5 Z"/></g>
<g><path style="opacity:1" fill="#f8f9fa" d="M 205.5,491.5 C 210.861,492.098 215.361,494.431 219,498.5C 219.802,506.549 219.635,514.549 218.5,522.5C 208.677,523.433 200.01,520.599 192.5,514C 189.93,511.933 187.93,509.433 186.5,506.5C 192.565,501.095 198.898,496.095 205.5,491.5 Z"/></g>
<g><path style="opacity:1" fill="#1e313e" d="M 922.5,505.5 C 921.749,506.573 920.749,506.74 919.5,506C 913.2,502.569 910.866,497.403 912.5,490.5C 925.784,489.518 939.117,489.185 952.5,489.5C 953.016,464.678 941.016,453.345 916.5,455.5C 933.107,451.388 944.94,457.055 952,472.5C 953.886,478.697 954.72,485.03 954.5,491.5C 940.484,491.167 926.484,491.501 912.5,492.5C 913.226,498.997 916.559,503.33 922.5,505.5 Z"/></g>
<g><path style="opacity:1" fill="#fbfcfc" d="M 241.5,491.5 C 243.655,491.372 245.655,491.872 247.5,493C 252.833,496.667 258.167,500.333 263.5,504C 264.749,506.21 264.582,508.376 263,510.5C 255.555,518.473 246.388,523.14 235.5,524.5C 234.522,524.023 233.689,523.357 233,522.5C 232.333,514.167 232.333,505.833 233,497.5C 235.988,495.601 238.821,493.601 241.5,491.5 Z"/></g>
<g><path style="opacity:1" fill="#111e26" d="M 535.5,480.5 C 535.5,492.833 535.5,505.167 535.5,517.5C 529.833,517.5 524.167,517.5 518.5,517.5C 518.8,503.118 518.466,488.785 517.5,474.5C 517.435,474.062 517.601,473.728 518,473.5C 518.333,474.167 518.667,474.833 519,475.5C 519.5,488.829 519.667,502.163 519.5,515.5C 524.5,515.5 529.5,515.5 534.5,515.5C 534.172,503.655 534.505,491.988 535.5,480.5 Z"/></g>
<g><path style="opacity:1" fill="#8f9ea7" d="M 937.5,499.5 C 942.68,498.185 948.014,498.185 953.5,499.5C 953.376,500.107 953.043,500.44 952.5,500.5C 947.695,499.513 942.695,499.179 937.5,499.5 Z"/></g>
<g><path style="opacity:1" fill="#0e1b25" d="M 694.5,433.5 C 694.5,461.5 694.5,489.5 694.5,517.5C 688.833,517.5 683.167,517.5 677.5,517.5C 677.5,490.167 677.5,462.833 677.5,435.5C 678.498,461.995 678.831,488.661 678.5,515.5C 683.5,515.5 688.5,515.5 693.5,515.5C 693.169,487.995 693.502,460.662 694.5,433.5 Z"/></g>
<g><path style="opacity:1" fill="#162733" d="M 896.5,478.5 C 897.222,485.035 898.055,491.702 899,498.5C 902.664,508.163 909.497,514.33 919.5,517C 918.906,517.464 918.239,517.631 917.5,517.5C 906.826,514.325 899.992,507.325 897,496.5C 896.501,490.509 896.334,484.509 896.5,478.5 Z"/></g>
<g><path style="opacity:1" fill="#1f313c" d="M 747.5,483.5 C 744.832,494.838 742.165,506.172 739.5,517.5C 733.491,517.666 727.491,517.499 721.5,517C 720.287,514.313 719.62,511.48 719.5,508.5C 721.107,509.855 721.774,512.189 721.5,515.5C 727.167,515.5 732.833,515.5 738.5,515.5C 741.017,504.019 744.017,493.352 747.5,483.5 Z"/></g>
<g><path style="opacity:1" fill="#1d2d39" d="M 789.5,505.5 C 788.514,509.443 787.848,513.443 787.5,517.5C 781.167,517.5 774.833,517.5 768.5,517.5C 768.5,516.5 768.5,515.5 768.5,514.5C 773.727,515.643 779.393,515.643 785.5,514.5C 786.435,510.615 787.769,507.615 789.5,505.5 Z"/></g>
<g><path style="opacity:1" fill="#447fa4" d="M 309.5,531.5 C 313.555,531.176 317.555,531.509 321.5,532.5C 304.182,551.651 286.015,569.985 267,587.5C 259.098,596.971 251.931,606.971 245.5,617.5C 233.833,618.833 222.167,618.833 210.5,617.5C 228.688,591.812 250.688,569.979 276.5,552C 277.696,551.346 277.696,550.846 276.5,550.5C 246.855,564.315 220.688,582.982 198,606.5C 194.781,610.052 191.948,613.885 189.5,618C 173.167,618.667 156.833,618.667 140.5,618C 166.921,588.601 198.587,566.601 235.5,552C 259.434,542.02 284.101,535.187 309.5,531.5 Z"/></g>
</svg>
