<?xml version="1.0" encoding="UTF-8"?>
<!DOCTYPE svg PUBLIC "-//W3C//DTD SVG 1.1//EN" "http://www.w3.org/Graphics/SVG/1.1/DTD/svg11.dtd">
<svg xmlns="http://www.w3.org/2000/svg" version="1.1" width="1024px" height="1024px" style="shape-rendering:geometricPrecision; text-rendering:geometricPrecision; image-rendering:optimizeQuality; fill-rule:evenodd; clip-rule:evenodd" xmlns:xlink="http://www.w3.org/1999/xlink">
<g><path style="opacity:1" fill="#4480a5" d="M 209.5,362.5 C 267.578,358.103 308.078,382.437 331,435.5C 341.211,466.252 339.044,496.086 324.5,525C 307.941,524.895 291.608,526.729 275.5,530.5C 274.833,530.167 274.167,529.833 273.5,529.5C 298.517,506.096 305.35,478.096 294,445.5C 277.543,412.346 250.709,397.513 213.5,401C 179.36,408.808 159.193,429.974 153,464.5C 151.731,511.906 174.564,539.406 221.5,547C 205.372,554.895 190.038,564.062 175.5,574.5C 121.641,541.429 103.475,494.429 121,433.5C 137.742,393.737 167.242,370.071 209.5,362.5 Z"/></g>
<g><path style="opacity:1" fill="#214056" d="M 216.5,409.5 C 248.491,407.03 271.658,420.03 286,448.5C 295.808,477.096 289.975,501.929 268.5,523C 246.904,538.844 223.571,541.844 198.5,532C 165.867,513.216 155.034,485.716 166,449.5C 175.732,426.908 192.566,413.575 216.5,409.5 Z"/></g>
<g><path style="opacity:1" fill="#fbfbfc" d="M 220.5,461.5 C 236.066,460.333 241.233,467 236,481.5C 228.727,488.441 221.727,488.108 215,480.5C 211.628,472.479 213.461,466.145 220.5,461.5 Z"/></g>
<g><path style="opacity:1" fill="#fafbfc" d="M 179.5,452.5 C 186.912,456.292 193.745,460.958 200,466.5C 200.667,470.833 200.667,475.167 200,479.5C 193.841,484.911 187.174,489.578 180,493.5C 178.523,492.556 177.523,491.223 177,489.5C 172.984,476.755 173.817,464.421 179.5,452.5 Z"/></g>
<g><path style="opacity:1" fill="#fbfcfc" d="M 269.5,452.5 C 270.822,452.33 271.989,452.663 273,453.5C 278.16,465.551 278.826,477.884 275,490.5C 274.632,491.91 273.799,492.91 272.5,493.5C 264.979,489.807 258.146,485.141 252,479.5C 251.333,474.833 251.333,470.167 252,465.5C 257.812,461.024 263.645,456.691 269.5,452.5 Z"/></g>
<g><path style="opacity:1" fill="#fcfcfc" d="M 233.5,423.5 C 245.379,423.884 255.212,428.551 263,437.5C 263.667,438.833 263.667,440.167 263,441.5C 256.828,446.586 250.162,450.92 243,454.5C 233.458,451.927 229.958,445.761 232.5,436C 232.53,431.752 232.864,427.586 233.5,423.5 Z"/></g>
<g><path style="opacity:1" fill="#f8f9fa" d="M 210.5,423.5 C 213.685,423.02 216.519,423.686 219,425.5C 219.667,432.833 219.667,440.167 219,447.5C 218.626,448.416 218.126,449.25 217.5,450C 214.6,451.742 211.6,453.242 208.5,454.5C 200.594,450.567 193.594,445.567 187.5,439.5C 189.612,435.553 192.612,432.387 196.5,430C 201.137,427.511 205.804,425.344 210.5,423.5 Z"/></g>
<g><path style="opacity:1" fill="#f8f9fa" d="M 205.5,491.5 C 210.861,492.098 215.361,494.431 219,498.5C 219.802,506.549 219.635,514.549 218.5,522.5C 208.677,523.433 200.01,520.599 192.5,514C 189.93,511.933 187.93,509.433 186.5,506.5C 192.565,501.095 198.898,496.095 205.5,491.5 Z"/></g>
<g><path style="opacity:1" fill="#fbfcfc" d="M 241.5,491.5 C 243.655,491.372 245.655,491.872 247.5,493C 252.833,496.667 258.167,500.333 263.5,504C 264.749,506.21 264.582,508.376 263,510.5C 255.555,518.473 246.388,523.14 235.5,524.5C 234.522,524.023 233.689,523.357 233,522.5C 232.333,514.167 232.333,505.833 233,497.5C 235.988,495.601 238.821,493.601 241.5,491.5 Z"/></g>
<g><path style="opacity:1" fill="#447fa4" d="M 309.5,531.5 C 313.555,531.176 317.555,531.509 321.5,532.5C 304.182,551.651 286.015,569.985 267,587.5C 259.098,596.971 251.931,606.971 245.5,617.5C 233.833,618.833 222.167,618.833 210.5,617.5C 228.688,591.812 250.688,569.979 276.5,552C 277.696,551.346 277.696,550.846 276.5,550.5C 246.855,564.315 220.688,582.982 198,606.5C 194.781,610.052 191.948,613.885 189.5,618C 173.167,618.667 156.833,618.667 140.5,618C 166.921,588.601 198.587,566.601 235.5,552C 259.434,542.02 284.101,535.187 309.5,531.5 Z"/></g>
<text x="420" y="485" font-family="Arial, Helvetica, sans-serif" font-weight="bold" font-size="72" fill="#ffffff">Wheelswise</text>
</svg>
